# xmcd CD database file
# Copyright (C) 1997 Ti Kan
#
# Track frame offsets:
#  150
#  17787
#  28587
#  39437
#  51050
#  62087
#  73312
#  87117
#  100220
#  112135
#  123237
#  132582
#  142342
#  157127
#  169170
#
# Disc length: 2429 seconds
#
# Revision: 1
# Processed by: cddbd v1.4b41PL1 Copyright (c) Steve Scherf et al.
# Submitted via: CDWizzard Release:4.32
#
DISCID=df097b0f
DTITLE=Faron Young - Faron Young - Greatest Hits Vol 1&2
DYEAR=1900
DGENRE=
TTITLE0=Sweet Dreams
TTITLE1=Wine Me Up
TTITLE2=Face To The Wall
TTITLE3=She Went A Little Bit Farther
TTITLE4=Just What I Had In Mind
TTITLE5=Goin' Steady
TTITLE6=I Miss You Already
TTITLE7=She Fights That Lovin' Feeling
TTITLE8=What's He Doing In My World
TTITLE9=Leavin' And Sayin' Goodbye
TTITLE10=Hello Walls
TTITLE11=Alone With You
TTITLE12=Tripping Over Love She Left Behind 
TTITLE13=I Guess I Had Too Much To Dream Last Night 
TTITLE14=Three Days
EXTD=First of 2 CD Compilation Of Faron Youngs Greatest Hits 1, 2 and 3 by 
EXTD=Step One Records, 1300 Division Street, Suite 304, Nashville, TN 372
EXTD=03, Tele. (615) 255-3009. SN SOR-0043/44/45
EXTT0=
EXTT1=
EXTT2=
EXTT3=
EXTT4=
EXTT5=
EXTT6=
EXTT7=
EXTT8=
EXTT9=
EXTT10=
EXTT11=
EXTT12=
EXTT13=
EXTT14=
PLAYORDER=
